<?xml version="1.0"?>
<svg xmlns="http://www.w3.org/2000/svg" xmlns:xlink="http://www.w3.org/1999/xlink" data-noselect="" viewBox="0 0 800 600" width="1600" height="1200" preserveAspectRatio="none" version="1.1" class="svg-canvas"><defs/> <g id="background" data-noselect=""><rect style="opacity: 0" width="800" height="600" data-noselect=""/> <!----></g> <g id="shape_WjeasnSGy3" transform="translate(203.041576087355,213.22140042432503) rotate(0,131.66563039048,79.432708157092) scale(1,1)" filter="" style="opacity: 1;"><g><svg xmlns="http://www.w3.org/2000/svg" xmlns:xlink="http://www.w3.org/1999/xlink" version="1.1" id="&#x56FE;&#x5C42;_1" x="0px" y="0px" viewBox="0 0 395 238.3" style="enable-background:new 0 0 395 238.3;" xml:space="preserve" width="263.33126078096" height="158.86541631418" class="style-removed" preserveAspectRatio="none" data-parent="shape_WjeasnSGy3">

<g>
	<polygon points="90.4,180.4 90.5,180.4 90.5,180.3 68.5,143.6 56.1,123 56,122.7 51.6,115.4 0,180.4 43,180.4    2.8,238.3 136.3,238.3 163.3,199.4 77.3,199.4  " fill="#00B1F2" stroke-width="0"/>
	<polygon points="312.2,113.9 290.2,77.3 277.8,56.5 277.6,56.8 232.1,114.2 226.3,121.6 316.8,121.6 312.4,114.2  " fill="#00B1F2" stroke-width="0"/>
	<polygon points="352,56.5 391.3,0 168.1,0 83,122.7 83.1,122.7 105,159.3 122.1,187.8 173.6,122.7 130.4,122.7    188.5,39 316.8,39 304.6,56.5 304.5,56.5 304.6,56.6 326.5,93.3 326.5,93.3 339.1,114.2 343.5,121.6 349.3,114.2 395,56.5  " fill="#00B1F2" stroke-width="0"/>
</g>
</svg></g></g><g id="shape_yNXK5Rn61K" transform="translate(440.873960061145,198.87514654086505) rotate(0,49.09,86.89281) scale(1,1)" filter="" style="opacity: 1;"><g><svg xmlns="http://www.w3.org/2000/svg" xmlns:xlink="http://www.w3.org/1999/xlink" version="1.1" width="147.36" height="173.78562" viewBox="0 0 147.36 173.78562"><g data-width="48.592387533798" transform="translate(24.59, 0)"><path d="M21.22-0.02L19.35-0.02Q18.44-0.02 17.80-0.66Q17.16-1.30 17.16-2.21L17.16-2.21L17.16-15.27L5.11-15.27L5.11-2.70L3.91-0.05L0.54-0.05L1.72-2.70L1.72-17.68L17.16-17.68L19.08-17.68L20.46-17.68L20.46-2.85Q20.46-2.63 20.63-2.47Q20.80-2.31 21.02-2.31L21.02-2.31L22.08-2.31L21.22-0.02ZM13.45-14.63L16.55-14.63Q16.13-12.93 15.27-11.27Q14.41-9.61 13.23-8.14L13.23-8.14Q14.58-7.03 16.55-6.30L16.55-6.30L16.55-3.22Q15.07-3.49 13.70-4.19Q12.32-4.89 11.07-5.93L11.07-5.93Q9.81-4.89 8.43-4.19Q7.06-3.49 5.58-3.22L5.58-3.22L5.58-6.30Q7.52-7.03 8.90-8.14L8.90-8.14Q7.72-9.61 6.86-11.27Q6.00-12.93 5.58-14.63L5.58-14.63L8.68-14.63Q9.22-13.52 9.79-12.47Q10.35-11.41 11.07-10.45L11.07-10.45Q11.78-11.41 12.34-12.47Q12.91-13.52 13.45-14.63L13.45-14.63Z" transform="translate(0 94.89281) " fill="#1a2844" stroke="#1a2844" stroke-width="0.041" data-glyph-w="24.296193766899" data-glyph-h="24.59" data-glyph-ascender="21.12281" data-glyph-descender="-3.46719"/><path d="M22.11-16.45L22.11-14.02L10.65-14.02L12.27-17.66L15.91-17.66L15.37-16.45L22.11-16.45ZM10.33-14.75L5.61-14.75L5.21-12.07L10.11-12.07L10.11-2.66Q10.11-1.52 9.45-0.74Q8.80 0.05 7.67 0.05L7.67 0.05L4.70 0.05L5.78-1.84L6.47-1.84Q6.79-1.84 7.01-2.07Q7.23-2.29 7.23-2.61L7.23-2.61L7.23-9.64L4.89-9.64L3.54 0.05L0.52 0.05L2.58-14.75L0.52-14.75L0.52-16.92L3.59-16.92L3.20-17.78L6.96-17.78L7.35-16.92L10.33-16.92L10.33-14.75ZM20.68-11.48L13.99-10.67L13.99-2.61Q13.99-2.29 14.21-2.07Q14.43-1.84 14.75-1.84L14.75-1.84L17.24-1.84L16.45 0.05L13.62 0.05Q13.13 0.05 12.71-0.14Q12.29-0.32 11.99-0.63Q11.68-0.93 11.50-1.35Q11.31-1.77 11.31-2.26L11.31-2.26L11.31-10.38L11.31-12.07L11.31-12.52L20.68-13.62L20.68-11.48ZM21.93-9.17L20.51-5.68L19.01-5.68L21.79 0L18.91 0L14.26-9.49L17.14-9.49L18.17-7.38L18.98-9.17L21.93-9.17Z" transform="translate(24.296193766899 94.89281) " fill="#1a2844" stroke="#1a2844" stroke-width="0.041" data-glyph-w="24.296193766899" data-glyph-h="24.59" data-glyph-ascender="21.12281" data-glyph-descender="-3.46719"/></g></svg></g></g><g id="shape_TvHgcvc28t" transform="translate(216.06842391264502,-27.781400424325) rotate(0,240.39,365.06) scale(1,1)" filter="" style="opacity: 1;"><g><svg xmlns="http://www.w3.org/2000/svg" xmlns:xlink="http://www.w3.org/1999/xlink" version="1.1" width="680.56" height="730.12" viewBox="0 0 680.56 730.12"><g data-width="280.59101" transform="translate(99.89, 0)"><path d="M25.07-28.07L37.56-60.63L52.94-60.63L55.74-28.07L69.22-62.53L85.51-62.53L62.53-5.99L45.25-5.99L41.35-33.76L29.87-5.99L12.59-5.99L5.89-60.63L4.00-62.53L22.18-62.53L25.07-28.07Z" transform="translate(0 399.56) " fill="#1a2844" stroke="#1a2844" stroke-width="0.166" data-glyph-w="89.50144" data-glyph-h="129.857" data-glyph-ascender="99.89" data-glyph-descender="-29.967"/><path d="M8.79-62.53L31.86-62.53L23.17-5.99L4.99-5.99L11.69-58.74L8.79-62.53Z" transform="translate(89.50144 399.56) " fill="#1a2844" stroke="#1a2844" stroke-width="0.166" data-glyph-w="36.85941" data-glyph-h="129.857" data-glyph-ascender="99.89" data-glyph-descender="-29.967"/><path d="M8.29-62.53L31.37-62.53L51.44-27.07L56.24-62.53L72.62-62.53L64.93-5.99L45.75-5.99L26.57-40.56L21.78-5.99L4.50-5.99L12.19-58.74L8.29-62.53Z" transform="translate(126.36085 399.56) " fill="#1a2844" stroke="#1a2844" stroke-width="0.166" data-glyph-w="77.11508" data-glyph-h="129.857" data-glyph-ascender="99.89" data-glyph-descender="-29.967"/><path d="M8.29-62.53L72.62-62.53L65.83-12.69Q65.83-9.79 63.48-7.89Q61.13-5.99 58.24-5.99L58.24-5.99L4.50-5.99L11.19-58.74L8.29-62.53ZM53.44-52.94L30.37-52.94L24.67-15.58L47.65-15.58L53.44-52.94Z" transform="translate(203.47593 399.56) " fill="#1a2844" stroke="#1a2844" stroke-width="0.166" data-glyph-w="77.11508" data-glyph-h="129.857" data-glyph-ascender="99.89" data-glyph-descender="-29.967"/></g></svg></g></g></svg>
