<svg width="215" height="76" xmlns="http://www.w3.org/2000/svg" preserveAspectRatio="none" version="1.1" class="svg-canvas">
 <g>
  <title>Layer 1</title>
  <g id="background">
   <!---->
  </g>
  <g id="shape_WjeasnSGy3" transform="translate(203.042 213.221) scale(1 1)" stroke="null">
   <g id="svg_34" stroke="null" transform="matrix(0.55949 0 0 0.471251 -90.5425 -112.095)">
    <svg version="1.1" id="svg_2" x="-201" y="-212" viewBox="0 0 395 238.3" xml:space="preserve" width="263.33126" height="158.86542" class="style-removed" preserveAspectRatio="none" data-parent="shape_WjeasnSGy3" stroke="null" xmlns="http://www.w3.org/2000/svg" xmlns:xlink="http://www.w3.org/1999/xlink">
     <g id="svg_3" stroke="null">
      <polygon points="90.4,180.4 90.5,180.4 90.5,180.3 68.5,143.6 56.1,123 56,122.7 51.6,115.4 0,180.4 43,180.4    2.8,238.3 136.3,238.3 163.3,199.4 77.3,199.4  " fill="#00B1F2" stroke-width="0" id="svg_8" stroke="null"/>
      <polygon points="312.2,113.9 290.2,77.3 277.8,56.5 277.6,56.8 232.1,114.2 226.3,121.6 316.8,121.6 312.4,114.2  " fill="#00B1F2" stroke-width="0" id="svg_6" stroke="null"/>
      <polygon points="352,56.5 391.3,0 168.1,0 83,122.7 83.1,122.7 105,159.3 122.1,187.8 173.6,122.7 130.4,122.7    188.5,39 316.8,39 304.6,56.5 304.5,56.5 304.6,56.6 326.5,93.3 326.5,93.3 339.1,114.2 343.5,121.6 349.3,114.2 395,56.5  " fill="#00B1F2" stroke-width="0" id="svg_4" stroke="null"/>
     </g>
    </svg>
   </g>
  </g>
  <g y="-254" x="-306" stroke="null" id="shape_yNXK5Rn61K" transform="matrix(0.978948 0 0 1.09985 439.754 214.8)">
   <svg stroke="null" version="1.1" width="147.36" height="173.78562" viewBox="0 0 147.36 173.78562" id="svg_9" x="-315" y="-255.04801" xmlns="http://www.w3.org/2000/svg" xmlns:xlink="http://www.w3.org/1999/xlink">
    <g stroke="null" data-width="48.59239" id="svg_10">
     <path stroke="#1a2844" d="m45.81,94.87281l-1.87,0q-0.91,0 -1.55,-0.64q-0.64,-0.64 -0.64,-1.55l0,0l0,-13.06l-12.05,0l0,12.57l-1.2,2.65l-3.37,0l1.18,-2.65l0,-14.98l15.44,0l1.92,0l1.38,0l0,14.83q0,0.22 0.17,0.38q0.17,0.16 0.39,0.16l0,0l1.06,0l-0.86,2.29zm-7.77,-14.61l3.1,0q-0.42,1.7 -1.28,3.36q-0.86,1.66 -2.04,3.13l0,0q1.35,1.11 3.32,1.84l0,0l0,3.08q-1.48,-0.27 -2.85,-0.97q-1.38,-0.7 -2.63,-1.74l0,0q-1.26,1.04 -2.64,1.74q-1.37,0.7 -2.85,0.97l0,0l0,-3.08q1.94,-0.73 3.32,-1.84l0,0q-1.18,-1.47 -2.04,-3.13q-0.86,-1.66 -1.28,-3.36l0,0l3.1,0q0.54,1.11 1.11,2.16q0.56,1.06 1.28,2.02l0,0q0.71,-0.96 1.27,-2.02q0.57,-1.05 1.11,-2.16l0,0z" fill="#1a2844" stroke-width="0.041" data-glyph-w="24.29619" data-glyph-h="24.59" data-glyph-ascender="21.12281" data-glyph-descender="-3.46719" id="svg_13"/>
     <path stroke="#1a2844" d="m70.99619,78.44281l0,2.43l-11.46,0l1.62,-3.64l3.64,0l-0.54,1.21l6.74,0zm-11.78,1.7l-4.72,0l-0.4,2.68l4.9,0l0,9.41q0,1.14 -0.66,1.92q-0.65,0.79 -1.78,0.79l0,0l-2.97,0l1.08,-1.89l0.69,0q0.32,0 0.54,-0.23q0.22,-0.22 0.22,-0.54l0,0l0,-7.03l-2.34,0l-1.35,9.69l-3.02,0l2.06,-14.8l-2.06,0l0,-2.17l3.07,0l-0.39,-0.86l3.76,0l0.39,0.86l2.98,0l0,2.17zm10.35,3.27l-6.69,0.81l0,8.06q0,0.32 0.22,0.54q0.22,0.23 0.54,0.23l0,0l2.49,0l-0.79,1.89l-2.83,0q-0.49,0 -0.91,-0.19q-0.42,-0.18 -0.72,-0.49q-0.31,-0.3 -0.49,-0.72q-0.19,-0.42 -0.19,-0.91l0,0l0,-8.12l0,-1.69l0,-0.45l9.37,-1.1l0,2.14zm1.25,2.31l-1.42,3.49l-1.5,0l2.78,5.68l-2.88,0l-4.65,-9.49l2.88,0l1.03,2.11l0.81,-1.79l2.95,0z" fill="#1a2844" stroke-width="0.041" data-glyph-w="24.29619" data-glyph-h="24.59" data-glyph-ascender="21.12281" data-glyph-descender="-3.46719" id="svg_11"/>
    </g>
   </svg>
  </g>
  <g stroke="null" id="shape_TvHgcvc28t" transform="translate(216.068 -27.7814) scale(1 1)">
   <g stroke="null" id="svg_40" transform="matrix(0.514877 0 0 0.434029 -68.2721 44.53)">
    <svg stroke="null" version="1.1" width="680.56" height="730.12" viewBox="0 0 680.56 730.12" id="svg_20" x="-251.18325" y="-266.75821" xmlns="http://www.w3.org/2000/svg" xmlns:xlink="http://www.w3.org/1999/xlink">
     <g stroke="null" data-width="280.59101" id="svg_21">
      <path stroke="#1a2844" d="m124.96,371.49l12.49,-32.56l15.38,0l2.8,32.56l13.48,-34.46l16.29,0l-22.98,56.54l-17.28,0l-3.9,-27.77l-11.48,27.77l-17.28,0l-6.7,-54.64l-1.89,-1.9l18.18,0l2.89,34.46z" fill="#1a2844" stroke-width="0.166" data-glyph-w="89.50144" data-glyph-h="129.857" data-glyph-ascender="99.89" data-glyph-descender="-29.967" id="svg_25"/>
      <path stroke="#1a2844" d="m198.18144,337.03l23.07,0l-8.69,56.54l-18.18,0l6.7,-52.75l-2.9,-3.79z" fill="#1a2844" stroke-width="0.166" data-glyph-w="36.85941" data-glyph-h="129.857" data-glyph-ascender="99.89" data-glyph-descender="-29.967" id="svg_24"/>
      <path stroke="#1a2844" d="m234.54085,337.03l23.08,0l20.07,35.46l4.8,-35.46l16.38,0l-7.69,56.54l-19.18,0l-19.18,-34.57l-4.79,34.57l-17.28,0l7.69,-52.75l-3.9,-3.79z" fill="#1a2844" stroke-width="0.166" data-glyph-w="77.11508" data-glyph-h="129.857" data-glyph-ascender="99.89" data-glyph-descender="-29.967" id="svg_23"/>
      <path stroke="#1a2844" d="m311.65594,337.03l64.33,0l-6.79,49.84q0,2.9 -2.35,4.8q-2.35,1.9 -5.24,1.9l0,0l-53.74,0l6.69,-52.75l-2.9,-3.79zm45.15,9.59l-23.07,0l-5.7,37.36l22.98,0l5.79,-37.36z" fill="#1a2844" stroke-width="0.166" data-glyph-w="77.11508" data-glyph-h="129.857" data-glyph-ascender="99.89" data-glyph-descender="-29.967" id="svg_22"/>
     </g>
    </svg>
   </g>
  </g>
 </g>

</svg>
